# xmcd
#
# Track frame offsets: 
#        150
#        15465
#        31993
#        46307
#        60989
#        79992
#        93822
#        104293
#        119624
#        140725
#        162928
#        178676
#        199091
#        211390
#        227698
#        241737
#        258927
#        279384
#        290366
#        307308
#
# Disc length: 4280 seconds
#
# Revision: 1
# Processed by: cddbd v1.5.2PL0 Copyright (c) Steve Scherf et al.
# Submitted via: ExactAudioCopy v1.4
#
DISCID=1610b614
DTITLE=Laurel Aitken - Everybody Ska! - Rudi Got Married 1980 To 1992
DYEAR=2010
DGENRE=Reggae
TTITLE0=Laurel Aitken and The Unitone - Rudi Got Married
TTITLE1=Laurel Aitken and The Unitone - Honey Come Back To Me
TTITLE2=Laurel Aitken and The Unitone - Big Fat Man
TTITLE3=Laurel Aitken and The Unitone - It's Too Late
TTITLE4=Let Me Love You Little Darling
TTITLE5=Laurel Aitken and The Potato 5 - Mad About You
TTITLE6=Laurel Aitken and The Potato 5 - Sahara
TTITLE7=Laurel Aitken and The Pressure Tenants - Everybody Ska
TTITLE8=Laurel Aitken and The Pressure Tenants - Skinhead
TTITLE9=Laurel Aitken and The Pressure Tenants - Sally Brown
TTITLE10=Laurel Aitken and The Pressure Tenants - Rude Boy Dream
TTITLE11=Laurel Aitken and The Pressure Tenants - Hey Little Girl
TTITLE12=Laurel Aitken and The Pressure Tenants - Since You Went Away
TTITLE13=Laurel Aitken and The Pressure Tenants - I Love You, Yes I Do
TTITLE14=Laurel Aitken and The Pressure Tenants - Looking In The Mirror
TTITLE15=Laurel Aitken and The Pressure Tenants - Don't Turn Your Back
TTITLE16=Laurel Aitken and The Pressure Tenants - Ringo The Gringo
TTITLE17=Laurel Aitken and The Pressure Tenants - Peggy Sue
TTITLE18=Laurel Aitken and The Pressure Tenants - Hitch Hike
TTITLE19=Laurel Aitken and The Pressure Tenants - Bartender
EXTD=
EXTT0=
EXTT1=
EXTT2=
EXTT3=
EXTT4=
EXTT5=
EXTT6=
EXTT7=
EXTT8=
EXTT9=
EXTT10=
EXTT11=
EXTT12=
EXTT13=
EXTT14=
EXTT15=
EXTT16=
EXTT17=
EXTT18=
EXTT19=
PLAYORDER=
